<svg id="Layer_1" data-name="Layer 1" xmlns="http://www.w3.org/2000/svg" xmlns:xlink="http://www.w3.org/1999/xlink" viewBox="0 0 140.95 65.79"><defs><style>.cls-1{fill:none;}.cls-11,.cls-2{fill:#7d8083;}.cls-2,.cls-3,.cls-4{opacity:0.36;}.cls-3,.cls-7{fill:#adafd8;}.cls-5{fill:#799ed2;}.cls-6{fill:#00aeef;}.cls-8{fill:#98dbf8;}.cls-9{fill:#a4caeb;}.cls-10{fill:#fefefe;}.cls-12{fill:#606365;}.cls-13{fill:#ebebeb;}.cls-14{fill:#7f9dd1;}.cls-15{fill:#3774ba;}.cls-16{fill:#579ed6;}.cls-17{fill:#3f97d3;}.cls-18{fill:#81b3e0;}.cls-19{fill:#5899d2;}.cls-20{fill:#4cbbec;}.cls-21{fill:#616365;}.cls-22{fill:#6dc2ed;}.cls-23{fill:#2b2a2b;}.cls-24{fill:#8ad6f5;}.cls-25{fill:#9fdae2;}.cls-26{fill:#3d3c3d;}.cls-27{fill:#dddede;}.cls-28{fill:#d7d8d9;}.cls-29{fill:#bcbcbe;}.cls-30{fill:#77c2ec;}.cls-31{fill:#3dc7f4;}.cls-32{fill:#88c6ed;}.cls-33{fill:#8fd7f0;}.cls-34{fill:#92b5df;}.cls-35{fill:#fbfbfb;}.cls-36{fill:#6b6e70;}.cls-37{fill:#696b6e;}.cls-38{fill:#747679;}.cls-39{fill:#75777a;}.cls-40{fill:#7d8082;}.cls-41{fill:#fff;}.cls-42{fill:#f9f9f8;}.cls-43{fill:#65676a;}.cls-44{fill:#9d9fa1;}.cls-45{fill:#9ea0a2;}.cls-46{fill:#81bee8;}.cls-47{fill:#fafafa;}.cls-48{isolation:isolate;font-size:14.58px;fill:#3076b6;font-family:AgencyFB-Bold, Agency FB;font-weight:700;}.cls-49{opacity:0.89;}.cls-50{clip-path:url(#clip-path);}.cls-51,.cls-52,.cls-53{fill:#138dad;}.cls-52{font-size:49.22px;}.cls-52,.cls-53{font-family:Impact;}.cls-53{font-size:48.25px;}</style><clipPath id="clip-path" transform="translate(-226.25 -382.01)"><rect class="cls-1" x="248.4" y="385.6" width="50.07" height="50.07"/></clipPath></defs><path class="cls-2" d="M298.18,382.44c-.18-.24-.55-.17-.93-.1.56-.32.93-.26,1.15.1h-.22Z" transform="translate(-226.25 -382.01)"/><path class="cls-2" d="M297.44,386.87a3,3,0,0,1,1-.1C298.2,387,297.81,386.94,297.44,386.87Z" transform="translate(-226.25 -382.01)"/><path class="cls-2" d="M299.77,386.48a8.58,8.58,0,0,1-1.44-.08A5.28,5.28,0,0,1,299.77,386.48Z" transform="translate(-226.25 -382.01)"/><path class="cls-3" d="M302.23,396.52a8.34,8.34,0,0,1-1,1.14,1.64,1.64,0,0,1-.31.28l0,0c.34-.06.67-.14,1-.23s.48-.24.43-.65Z" transform="translate(-226.25 -382.01)"/><path class="cls-2" d="M311.51,386.61a6.75,6.75,0,0,1,1.68,0Z" transform="translate(-226.25 -382.01)"/><path class="cls-2" d="M314.36,382.26a5.06,5.06,0,0,1-1.29-.08h1a.21.21,0,0,1,.27-.11c.09,0,.1.1.05.18Z" transform="translate(-226.25 -382.01)"/><path class="cls-2" d="M313,383.47a3.93,3.93,0,0,1,1.13-.09c0,.13-.13.14-.25.13C313.58,383.48,313.28,383.48,313,383.47Z" transform="translate(-226.25 -382.01)"/><path class="cls-2" d="M314.31,385c-.15.15-.27.35-.51.39C313.87,385.14,314,384.94,314.31,385Z" transform="translate(-226.25 -382.01)"/><path class="cls-2" d="M313,382.18a3.7,3.7,0,0,1-1.05-.08A2.86,2.86,0,0,1,313,382.18Z" transform="translate(-226.25 -382.01)"/><path class="cls-2" d="M312,382.1a2.64,2.64,0,0,1-.89-.08C311.35,382,311.66,381.94,312,382.1Z" transform="translate(-226.25 -382.01)"/><path class="cls-2" d="M313.35,385.74a.89.89,0,0,1-.51.23C312.93,385.72,313.13,385.72,313.35,385.74Z" transform="translate(-226.25 -382.01)"/><path class="cls-2" d="M314.37,382.25c-.07-.18-.2-.13-.32-.07.18-.26.32-.21.4.07h-.08Z" transform="translate(-226.25 -382.01)"/><path class="cls-2" d="M311.65,386.3a1.09,1.09,0,0,1-.51.07A.82.82,0,0,1,311.65,386.3Z" transform="translate(-226.25 -382.01)"/><g class="cls-4"><path class="cls-5" d="M344.85,401.88c-.39.07-.33-.28-.44-.47s-.13-.2-.21-.28c-.24-.22-.4-.58-.81-.54a1,1,0,0,0-.39.45,7.1,7.1,0,0,1-1,1.31,10.12,10.12,0,0,1-4.47,2.55,29.17,29.17,0,0,1-5,.84l-.27.09.19-.08c.17-.08.3-.19.19-.4a.74.74,0,0,0-.39,0,27.67,27.67,0,0,0-2.88,0h-.26c-.52-.07-1.05,0-1.57,0-.22,0-.45.18-.64-.05h0a1,1,0,0,0-.42,0,.31.31,0,0,1-.41-.07c-.13,0-.27,0-.39,0h-.13a.58.58,0,0,0-.23,0c-.15.05-.31.15-.44-.05h0c-.29-.1-.6,0-.89-.07H322.7l-.07.06a.18.18,0,0,1-.12.05c-.07,0-.1-.07-.14-.11h-.15a3.68,3.68,0,0,1-2.36.27,9.28,9.28,0,0,0-3.24,0,14,14,0,0,1-2.89.21,6.27,6.27,0,0,0-1,0,31.58,31.58,0,0,1-4.35,0,.46.46,0,0,1-.39-.13,16.37,16.37,0,0,1,1.83-.12,2.34,2.34,0,0,0,.83-.1c.13,0,.24-.08.26-.22a.3.3,0,0,0-.17-.3,2.46,2.46,0,0,0-1-.4c-.93-.1-1.85-.17-2.77-.25-1.18-.1-2.35-.23-3.51-.44a24.91,24.91,0,0,1,.09,2.59,4.69,4.69,0,0,1,3.57,4.28h.07a2.29,2.29,0,0,1,.78.09h.13a3.34,3.34,0,0,1,.95.1l.14,0a4.71,4.71,0,0,1,.84-.11.76.76,0,0,1,.57.08h.79a.5.5,0,0,1,.5.06l.11,0H313a.49.49,0,0,1,.47.06l.12,0h.94c.13,0,.27-.11.39,0l.1,0a.75.75,0,0,0,.41.07.26.26,0,0,0,.12,0,.39.39,0,0,0,.08-.1A3.6,3.6,0,0,1,317,410a6.21,6.21,0,0,1,2.19-.14c.34,0,.72.16,1-.14.09-.34-.16-.34-.38-.37a2.85,2.85,0,0,1-.41,0H319a1.73,1.73,0,0,1-.75,0,6.45,6.45,0,0,1-.76,0l-.12,0c-.09,0-.2.05-.29,0,.07,0,.13,0,.19,0a1,1,0,0,0,.45-.17.76.76,0,0,0,.11-.14.2.2,0,0,1,.26-.06,1.24,1.24,0,0,0,.16,0h.12a2.11,2.11,0,0,1,.5,0l.12,0a2.7,2.7,0,0,1,1.2,0,.69.69,0,0,0,.62.14,2.32,2.32,0,0,1,.87.12l.11,0a2.21,2.21,0,0,1,.42.12.53.53,0,0,0,.35,0c.33-.21.53.11.79.2s.34.05.34.28c0,0,0,.08,0,.11s-.18.27,0,.42a2.49,2.49,0,0,0,1.14.15c1.39,0,2.78-.15,4.17-.21a.54.54,0,0,0,.37-.11c.12-.32-.15-.29-.32-.36a.23.23,0,0,1-.11,0c.07-.07.16,0,.24-.07s.35-.06.53-.06h2.85c.28,0,.46-.09.51-.38a.31.31,0,0,0-.29-.24,8,8,0,0,0-.84-.1c-1.17,0-2.33-.08-3.5,0a4,4,0,0,1-1-.1c-1,0-2-.12-3-.1a6.1,6.1,0,0,0-1.48,0,5,5,0,0,1-1.83-.24,12.62,12.62,0,0,1,2.29-.24c4,0,7.93,0,11.89-.09a5.09,5.09,0,0,0,.56,0c.82-.11,1.57-.48,2.37-.66a7.47,7.47,0,0,0,2.55-1.08c.22-.14.45-.29.68-.42s.17-.12.26,0,0,.15,0,.23a2.53,2.53,0,0,1-.3.62,3.41,3.41,0,0,0-.31.6,1.12,1.12,0,0,0,.27,1.36,6.21,6.21,0,0,0,1.92,1,.25.25,0,0,0,.26,0c.18-.18.11-.38,0-.58a.64.64,0,0,1-.16-.82c-.05-.33-.31-.55-.38-.87s0-.44.25-.54.34-.15.38-.37a1.24,1.24,0,0,1,0-.47c.1-.54.32-1,.45-1.57a.36.36,0,0,1,.23-.51,2.09,2.09,0,0,0,.49-.93.49.49,0,0,1,0-.27c.05-.16.28-.13.3-.31S345,402,344.85,401.88Z" transform="translate(-226.25 -382.01)"/><path class="cls-5" d="M339.62,412.83l-.28.05a31,31,0,0,1-4.68.55c-3.12.13-6.26,0-9.39.11A1.49,1.49,0,0,1,324,413a.52.52,0,0,0-.11-.1.58.58,0,0,0-.14,0,20.44,20.44,0,0,1-2.82-.08h-.13a2.38,2.38,0,0,1-.59.07l-.11,0-.59.14c-.13,0-.22.21-.35.13-.36-.21-.82-.08-1.17-.32h-.11a.51.51,0,0,1-.63-.14c-.09,0-.2,0-.28-.1s0-.26,0-.39-.24-.27-.41-.35c-.45-.24-.89-.48-1.32-.74l-.12-.05a.29.29,0,0,0-.13,0,3.1,3.1,0,0,1-1.25,0l-.2,0a3.33,3.33,0,0,1-1.63.06.27.27,0,0,0-.13,0,3.07,3.07,0,0,1-1.44.09h-.13a2,2,0,0,1-1.09,0l-.13,0c-.6.1-1.2.19-1.81.23a4.67,4.67,0,0,1-3.52,4.11c0,.59,0,1.19-.1,1.79a7.72,7.72,0,0,0,.2.83c1.05-.16,2.11-.26,3.17-.38a17.37,17.37,0,0,0,3.27-.65c.18-.06.35-.12.33-.34s-.18-.26-.36-.27a42.31,42.31,0,0,0-4.5-.17,4.4,4.4,0,0,1-.82.06,1.48,1.48,0,0,1,.54-.08c1.43,0,2.87-.14,4.31-.09a3.54,3.54,0,0,0,.56,0,31.49,31.49,0,0,1,5.23.09,19.89,19.89,0,0,0,2.89.25c.83,0,1.66-.12,2.48-.21a1.53,1.53,0,0,1,1,.18,1.7,1.7,0,0,0,.49.18h.95c.09-.09.19-.06.3-.06a6.63,6.63,0,0,0,1.26,0H325c.17-.18.4,0,.59-.08h.13c.14-.09.3,0,.44-.07h.13c.18-.1.4,0,.59-.07h.21c.14-.08.29,0,.43,0a8.49,8.49,0,0,0,1.13,0h1.32a16.74,16.74,0,0,0,2.24,0,.41.41,0,0,0,.29,0c.05-.24-.14-.28-.3-.33-.33-.1-.66-.12-1-.19s-.85,0-1.35-.13a.88.88,0,0,1,.55-.12H333c.19,0,.42,0,.52-.21-.06-.28-.31-.21-.49-.26s-.51.15-.75.06a11.32,11.32,0,0,1-1.69-.51h-.11c-.18,0-.34-.06-.51-.08h-.12a6.65,6.65,0,0,1-1.78-.13s0,0,0,0a2.92,2.92,0,0,1,1.06-.13,19.6,19.6,0,0,1,3.51.14,2.57,2.57,0,0,0,.38.08c.3-.11.44.08.56.31a1.13,1.13,0,0,0,.42.22,1.74,1.74,0,0,0,.51,0,7.13,7.13,0,0,1,1.6,0c.22,0,.44,0,.66,0l.32,0a1.28,1.28,0,0,1,.67,0l.18,0c.16,0,.33,0,.5.06s.18,0,.28,0a1,1,0,0,0,.62-.37,6,6,0,0,1,.64-1.68C340.2,413,340,412.79,339.62,412.83Z" transform="translate(-226.25 -382.01)"/><path class="cls-5" d="M331.17,405.91h0Z" transform="translate(-226.25 -382.01)"/><path class="cls-6" d="M315.65,404c-2-.29-4.07-.56-6.12-.75-1.77-.16-3.55-.35-5.32-.55l-.78-.09c.05.36.09.71.12,1.07l.56.09c1.8.28,3.63.39,5.44.56a2.69,2.69,0,0,1,1.34.53,1.44,1.44,0,0,1-.27.05c-.95.12-1.93.05-2.88.23-.14,0-.37-.06-.38.12s.22.21.37.25a2.14,2.14,0,0,0,.56.11c.67,0,1.34.08,2,.08,1.52,0,3,0,4.55-.06a3,3,0,0,0,.6,0,13.83,13.83,0,0,1,5.09-.08,1.61,1.61,0,0,0,1.68-.54Z" transform="translate(-226.25 -382.01)"/><path class="cls-7" d="M320.77,416.35a16,16,0,0,1-4,.14c-.58-.08-1.15-.2-1.72-.23a46,46,0,0,0-5.12,0c-1.55.08-3.12.08-4.67.11a1.41,1.41,0,0,0-.67.13c-.1.06-.25.14-.22.26s.2.09.31.08a29.86,29.86,0,0,1,4.23,0c.49,0,1,.08,1.48.12-.07.18-.19.17-.29.2a21.23,21.23,0,0,1-4,.72c-.82.09-1.65.17-2.47.3a7.49,7.49,0,0,0,.34,1c1-.12,2.07-.19,3.1-.32,1.85-.25,3.72-.38,5.57-.61,2.52-.32,5-.67,7.54-1a21.63,21.63,0,0,0,2.14-.32A1.61,1.61,0,0,0,320.77,416.35Z" transform="translate(-226.25 -382.01)"/><path class="cls-6" d="M348.93,403.62a37,37,0,0,0-.66-3.76c-.22,0-.22.15-.26.29a8.91,8.91,0,0,1-.26,1.11c-.08-.26-.14-.53-.24-.78s-.26-.39-.46-.25c-.41.28-.52,0-.69-.27a.48.48,0,0,0-.72-.2,2.31,2.31,0,0,0-.8.52c-.3.33-.66.66-.49,1.2,0,.1,0,.21-.06.31s-.08.25,0,.34.22,0,.32-.07l.18-.1c.34.1.37.17.19.53a1.44,1.44,0,0,1-.1.54,1.82,1.82,0,0,1,0,.52,4.68,4.68,0,0,1-.93,1.93c-.19.25-.46.47-.45.83-.17.18-.43.19-.63.32s-.24.14-.19.31a2,2,0,0,0,.58,1.15c.35.18.64.05.82-.38a3.78,3.78,0,0,0,.13-.67c0-.14.1-.29.27-.31s.26.1.33.23a1.91,1.91,0,0,1,.19.57,4.88,4.88,0,0,1,.09,1.08.53.53,0,0,0,.46.6c.15,0,.25-.08.37-.14a3.14,3.14,0,0,1,.78-1.06,2,2,0,0,0,.46-.88,8.58,8.58,0,0,0,.25-2.47c0-.39,0-.8.45-1,.18-.23.05-.55.23-.81.1.38.15.73.23,1.09a30.37,30.37,0,0,1,.29,4,3.35,3.35,0,0,0-.07.71,15.5,15.5,0,0,1-.08,4.71,7.71,7.71,0,0,1,.09,2.2,10.21,10.21,0,0,1-.5,3.39c0-.78,0-1.58,0-2.37a4.23,4.23,0,0,0,0-1.28c-.18-.15-.22-.48-.56-.42s-.17.47-.13.71a8.42,8.42,0,0,1,.1,1.94c0-.38-.06-.75-.07-1.12a8.94,8.94,0,0,0-.12-1.16,5.41,5.41,0,0,0-.9-2c-.07-.1-.16-.23-.07-.37s.24-.09.37-.07.4.11.58-.05a1.44,1.44,0,0,0-.06-.94.77.77,0,0,0-.65-.59c-.32-.05-.5.2-.62.44-.22.41-.47.81-.65,1.24-.37.88-.51.94.4,1.86.37.11.47.36.44.73a2.54,2.54,0,0,0,.08,1,12.31,12.31,0,0,0-.71-1.67.4.4,0,0,0-.38.06,1.15,1.15,0,0,1-.41.17c-.36.09-.5,0-.54-.37a1.88,1.88,0,0,0-.1-.47.78.78,0,0,0-.72-.59.57.57,0,0,0-.62.44c-.15.36-.43.71-.16,1.13a.68.68,0,0,0,.26.18,3,3,0,0,1,.48.3.63.63,0,0,1,.21.12,7,7,0,0,1,1.38,2.39c.05.17.05.37.29.37s.15-.14.23-.21.24-.09.32.06a.43.43,0,0,1,0,.41c-.07.14-.19.11-.31.08a.36.36,0,0,0-.3.06c-.11.06-.08.23-.2.28s-.23-.32-.46-.28a.33.33,0,0,0-.23.27,2.24,2.24,0,0,0,0,1.53c.2.43.47.81.71,1.22a1.55,1.55,0,0,1,.21.89c0,.28-.13.52-.43.54s-.27-.28-.31-.47a8.4,8.4,0,0,0-2.53-4.27c-.51-.48-1.14-.79-1.63-1.29a19.45,19.45,0,0,0-6.34-2c-.19,0-.38-.06-.5.14l-3.39,0a1.28,1.28,0,0,0-.69.16c-.08.05-.16.12-.14.23s.13.09.2.09c.31,0,.62.05.92.09a6.16,6.16,0,0,1,2,.39h.07c.19.08.4,0,.58.07a18.39,18.39,0,0,1,5.32,1.23,7.74,7.74,0,0,1,4.6,4.53,11.24,11.24,0,0,1,.29,5.22,2.88,2.88,0,0,1-.34,1.2c0-.55,0-1,0-1.48a6.58,6.58,0,0,0-.47-3.31,8.1,8.1,0,0,0-3.95-3.82,12.67,12.67,0,0,0-7.54-.83,9.46,9.46,0,0,0-5.24,2.3,5.61,5.61,0,0,0-1.94,4.67,12.07,12.07,0,0,0,1.76,5.15c.22.11.32,0,.4-.2a.72.72,0,0,0-.06-.62,8.07,8.07,0,0,1-.68-2.1c-.07-.44,0-.89-.06-1.33a7.32,7.32,0,0,1,.18-2.47,2.7,2.7,0,0,1,.47-1.07,8.32,8.32,0,0,1,5.24-2.91,12.26,12.26,0,0,1,4-.09,9.57,9.57,0,0,1,4.37,1.66,5.63,5.63,0,0,1,2.16,3.74,2.74,2.74,0,0,1,0,1.24c0,.16-.09.39-.28.4s-.22-.23-.27-.38a6.12,6.12,0,0,1-.2-.82,3.45,3.45,0,0,0-.75-1.59,4.64,4.64,0,0,0-.95-1,5.54,5.54,0,0,0-3-1.34,11.57,11.57,0,0,0-1.44.07,5.77,5.77,0,0,1-1.76,0,3.72,3.72,0,0,0-2.38.39c-.88.41-1.69,1-2.57,1.36a3.5,3.5,0,0,0-1.3,1c-.4.55-.23,1,.44,1.13.27,0,.38.16.36.42s0,.32-.05.48a7.79,7.79,0,0,0,0,2.21,6.85,6.85,0,0,0,4,5,16.93,16.93,0,0,0,2.55.73.53.53,0,0,0,.46-.08,1.1,1.1,0,0,1,1.07-.12,4.69,4.69,0,0,0,1.3.26,3.74,3.74,0,0,0,2.63-1,22.09,22.09,0,0,1,2.15-1.83,7.7,7.7,0,0,1,.63-.87,9.22,9.22,0,0,0,1.64-3.21,6.2,6.2,0,0,1,.48-1.37c.06-.12.08-.32.26-.32s.17.19.24.3.19.37.46.25a1,1,0,0,0,.19-.44c.11-.3.1-.63.23-.93a2.1,2.1,0,0,0,.21-.52,8.18,8.18,0,0,0,.29-2.51,5.26,5.26,0,0,1,.22-1.51c.24.24.12.69.56.71a.41.41,0,0,0,.26-.28,5.09,5.09,0,0,0,.31-1.09,3.53,3.53,0,0,0,.26,1c.06.15.17.34.36.1.14-.86.29-1.72.42-2.58.22-1.5.39-3,.51-4.52a46.52,46.52,0,0,0,.16-4.87A60.36,60.36,0,0,0,348.93,403.62Z" transform="translate(-226.25 -382.01)"/><path class="cls-6" d="M342.91,394c-.1-.28-.1-.58-.18-.86a8.6,8.6,0,0,0-2-3.55,1.32,1.32,0,0,1-.43-1.4.47.47,0,0,0-.23-.27c-.7-.44-1.4-.9-2.06-1.41a.58.58,0,0,0-.34-.11,5.87,5.87,0,0,0-2,.14c-.38.11-.75.24-1.09-.09-.06-.06-.16-.05-.24-.05-.7,0-1.39,0-2.09,0a.41.41,0,0,0-.45.32.75.75,0,0,1-.43.5,10.64,10.64,0,0,0-1.45.95,6.84,6.84,0,0,0-2.38,3.83,8,8,0,0,0,0,2.72c0,.41,0,.49-.39.55-.61.08-.78.46-.45,1a3.51,3.51,0,0,0,1.37,1.22c.53.28,1.09.52,1.62.82a10.38,10.38,0,0,0,3.33,1.15,7.34,7.34,0,0,0,6.2-1.54,4.31,4.31,0,0,0,1.59-2.18,9.71,9.71,0,0,0,.15-3.44s0-.06,0-.09a14.71,14.71,0,0,0,.64,2.45,1.3,1.3,0,0,1,.1.67,5.8,5.8,0,0,1-3.16,4.83,11.77,11.77,0,0,1-7.1,1.05,9.68,9.68,0,0,1-4.56-1.91,3.87,3.87,0,0,1-1.55-2.24,11.14,11.14,0,0,1-.17-2.44,7.67,7.67,0,0,1,.79-3.39.73.73,0,0,0,0-.69c-.08-.15-.18-.28-.37-.14a15.37,15.37,0,0,0-1.4,3.16,6.66,6.66,0,0,0-.15,4.09,6.57,6.57,0,0,0,3.34,3.77,13.48,13.48,0,0,0,7.34,1.31,10,10,0,0,0,5.06-1.72,6.89,6.89,0,0,0,3.1-4.34,8.48,8.48,0,0,0,0-2.25C342.88,394.24,342.94,394.09,342.91,394Zm-5.11-5.59-.15-.08Zm-.35-.17,0,0h0Zm3,2.62a6.44,6.44,0,0,0-1.39-1.59c.17.12.33.25.48.38a3.78,3.78,0,0,1,1.25,1.89A4.79,4.79,0,0,0,340.46,390.82Z" transform="translate(-226.25 -382.01)"/><path class="cls-8" d="M337.8,385.68a1.53,1.53,0,0,0-1.32,0,1.12,1.12,0,0,1-.38.1c-.15.1-.32,0-.47,0l-.07,0a.71.71,0,0,0,.22-.13c.16-.11.39-.14.48-.37a10.72,10.72,0,0,0-10.64,5,.47.47,0,0,1,.19.71,7.45,7.45,0,0,0-.81,3.18,13.4,13.4,0,0,0,.11,2.53,4.21,4.21,0,0,0,2.33,3.11,11.49,11.49,0,0,0,10.83.56,5.18,5.18,0,0,0,2-1.32,7,7,0,0,0,1.51-3.08,2.37,2.37,0,0,0,0-1.42,8.58,8.58,0,0,1-.63-2.25,5.1,5.1,0,0,0-3.33-4.06c-.11-.06-.19-.05-.18.1a8.52,8.52,0,0,1,1.86,1.53,4.91,4.91,0,0,1,1.22,2.1,9.58,9.58,0,0,1,.08,2.33,4,4,0,0,1-.85,2.48,6.69,6.69,0,0,1-2.16,1.72,8,8,0,0,1-6,.39,22.16,22.16,0,0,1-3.95-1.84,2.79,2.79,0,0,1-1.09-1c-.25-.41-.1-.67.37-.68.65,0,.65,0,.56-.64a.76.76,0,0,1,0-.16,7.17,7.17,0,0,1,.16-3.19,7,7,0,0,1,3.74-4.13c.18-.09.38-.15.35-.42s.11-.34.36-.33h1.89c.11,0,.24,0,.3.09.27.4.6.25.95.15,1.15-.33,2.28-.49,3.27.47a7,7,0,0,0,1.14.75.75.75,0,0,1,.31.25c0,.09,0,.19.15.23a1.35,1.35,0,0,1,.55.36.24.24,0,0,0,.1.05.57.57,0,0,1,.32.2.21.21,0,0,0,.1,0,.79.79,0,0,1,.51.38,2.36,2.36,0,0,0,.42.28c.14,0,.19.14.27.23a6.79,6.79,0,0,1,.9,1.16c.09.08.2.14.22.28a.31.31,0,0,0,.05.1.64.64,0,0,1,.22.38c.29.26.41.26.68,0s.22-.33.35-.48c-.22-.34-.43-.68-.67-1A12.3,12.3,0,0,0,337.8,385.68Zm-2.39.21-.2,0Z" transform="translate(-226.25 -382.01)"/><path class="cls-9" d="M325.6,431.42a.45.45,0,0,0,.19-.7,9.45,9.45,0,0,1-.69-5.6,4.21,4.21,0,0,1,2.17-3.09,11.09,11.09,0,0,1,6.69-1.69,10.81,10.81,0,0,1,5.28,1.55,5.8,5.8,0,0,1,2.59,4.14,2.14,2.14,0,0,1-.17,1.75c-.09.15-.18.36-.36.35s-.18-.24-.23-.39a5.84,5.84,0,0,1-.27-.93,3.9,3.9,0,0,0-1.16-2.25,5.47,5.47,0,0,0-3.5-1.81,11.28,11.28,0,0,0-1.92.14,4.89,4.89,0,0,1-1.21,0,3.51,3.51,0,0,0-2.23.35c-1,.48-2,1.1-3,1.59a2.53,2.53,0,0,0-1,1,.41.41,0,0,0,.24.63c.25.06.65-.12.74.12a2.61,2.61,0,0,1-.06,1,6.89,6.89,0,0,0,.1,2.6,6.77,6.77,0,0,0,4.91,4.78c.26.07.53.09.78.18a1.21,1.21,0,0,0,1.38-.14c.14-.13.31,0,.46,0a5.14,5.14,0,0,0,2.05.34,4.08,4.08,0,0,0,2.23-1.13,10.69,10.69,0,0,1,2-1.67,3.6,3.6,0,0,0,1.52-1.21q.27-.45.57-.87c.15-.21.28-.48.59-.38s.33.37.35.63a1.5,1.5,0,0,0,0,.2,12.22,12.22,0,0,1-7.41,5.44,10.73,10.73,0,0,1-11.41-4.39A1.3,1.3,0,0,1,325.6,431.42Z" transform="translate(-226.25 -382.01)"/><path class="cls-6" d="M347.81,397.83l-.08-.24a.67.67,0,0,1-.17-.56l-.1-.33c0-.11-.18-.18-.12-.33l-.17-.39c-.1-.06-.1-.15-.08-.25l0-.08c0-.1-.18-.18-.14-.32l-.09-.24c-.06-.11-.19-.18-.15-.33l-.26-.56c-.1-.15-.27-.27-.23-.49l-.57-1.12c-.22-.15-.22-.41-.32-.62l-.24-.51c-.25,0-.37.25-.53.4s-.29.17-.37-.08c-.15-.06-.16-.21-.23-.33a.15.15,0,0,0,0-.07c-.15-.06-.17-.22-.23-.34a8.74,8.74,0,0,0-.9-1.2c-.13,0-.26-.09-.32-.23l-.39-.26a1,1,0,0,1-.58-.39h-.06c-.12-.06-.28-.08-.34-.23H341c-.22-.09-.46-.15-.57-.39l-.24-.09c-.32.63-.32.64.17,1.18a9,9,0,0,1,2.1,3.56,3.62,3.62,0,0,0,.38,1c.07,0,0-.14.09-.18s0-.28.08-.4,0-.3.22-.32a.15.15,0,0,0,.08-.18l0,.09a15.86,15.86,0,0,1,.51,2.27,6.21,6.21,0,0,1,.25,1.87,13.91,13.91,0,0,1-.7,3.05c-.07.16-.14.33,0,.48l.9.82a2.51,2.51,0,0,1,.95-1.32c.72-.44.72-.46,1.12.28.17.3.29.45.53.08.06-.09.14-.21.25-.19s.13.19.17.3c.11.36.21.73.33,1.16a1.14,1.14,0,0,0,.28-.55c.1-.46.2-.92.29-1.38l-.39-1.7C347.75,398.07,347.86,397.93,347.81,397.83Zm-5-6.16.05.09Zm.17.37c.05.11.09.21.13.32C343.09,392.25,343.05,392.15,343,392Zm.17.42a.69.69,0,0,1,.05.13A.69.69,0,0,0,343.17,392.46Z" transform="translate(-226.25 -382.01)"/><path class="cls-10" d="M343.35,393.23a8.41,8.41,0,0,1,.25,1.31,20.34,20.34,0,0,1,.09,2.34,8,8,0,0,1-.62,2.92c-1.57,3.44-4.6,4.73-8,5.44-.8.16-1.61-.07-2.41.11-.17.35-.52.37-.83.47.25.27.55.09.83.09a33.48,33.48,0,0,0,3.73-.53c3-.66,5.56-1.89,7.08-4.72a9.89,9.89,0,0,0,.86-3.57,12.34,12.34,0,0,0-.87-4.18C343.23,393,343.32,393.12,343.35,393.23Z" transform="translate(-226.25 -382.01)"/><path class="cls-11" d="M344.72,430.84c-.13-.08-.16-.21-.22-.33s-.06-.37-.24-.37-.23.2-.32.33c-.26.39-.5.79-.79,1.16a1.84,1.84,0,0,1-1.48.84,16.91,16.91,0,0,1,1.12-1.68,7.16,7.16,0,0,0,1-2.1,9.45,9.45,0,0,1,.75-2c.06-.11.09-.3.24-.29s.18.19.24.3l.38.67c.24.14.12.34.08.53a4.5,4.5,0,0,1-.2.51c-.06.12-.08.25.05.32.35.2.33.5.24.83Z" transform="translate(-226.25 -382.01)"/><path class="cls-11" d="M345.72,425.94a6.85,6.85,0,0,0,.46-2.87,6.94,6.94,0,0,1,.21-1.63.8.8,0,0,1,.27-.53c.26.37.18.87.49,1.21s.05.39-.07.53a.73.73,0,0,0-.12.75c.07.22.12.36.41.22s.41,0,.38.27a1.46,1.46,0,0,1,0,.51,20.56,20.56,0,0,1-.92,2.48,1.28,1.28,0,0,1-1-.78A1,1,0,0,0,345.72,425.94Z" transform="translate(-226.25 -382.01)"/><path class="cls-12" d="M347.73,424.4a1.42,1.42,0,0,0,0-.2c-.1-.5-.11-.5-.52-.19-.2.16-.21,0-.29-.12a1.6,1.6,0,0,1,.27-1.77c.19-.64.39-1.27.61-2,.13.53.24,1,.38,1.46,0,.1,0,.3.21.27A15.71,15.71,0,0,1,347.73,424.4Z" transform="translate(-226.25 -382.01)"/><path class="cls-12" d="M345.72,425.94l1.09.94a16.83,16.83,0,0,1-1.27,2.68c-.09-.31-.08-.68-.57-.67-.17,0-.07-.15,0-.25a4.08,4.08,0,0,0,.44-1.27Z" transform="translate(-226.25 -382.01)"/><path class="cls-13" d="M343.44,392.91a6.66,6.66,0,0,0-.9-1.93c-.07,0-.12,0-.08.09a13.36,13.36,0,0,1,.8,2l.34,1.46a3.59,3.59,0,0,0-.15-1.13C343.42,393.24,343.31,393.08,343.44,392.91Z" transform="translate(-226.25 -382.01)"/><path class="cls-11" d="M332.25,405.33h-2.88A15.39,15.39,0,0,1,332.25,405.33Z" transform="translate(-226.25 -382.01)"/><path class="cls-11" d="M329.11,405.33h-1.73a.21.21,0,0,1-.29.1c-.08,0-.09-.11,0-.18A15.76,15.76,0,0,1,329.11,405.33Z" transform="translate(-226.25 -382.01)"/><path class="cls-11" d="M329.93,416.49h2.24A9.33,9.33,0,0,1,329.93,416.49Z" transform="translate(-226.25 -382.01)"/><path class="cls-11" d="M323.34,416.89a.18.18,0,0,1,.22-.13,10,10,0,0,0,1.34.05A5.44,5.44,0,0,1,323.34,416.89Z" transform="translate(-226.25 -382.01)"/><path class="cls-11" d="M327.05,416.56a5.84,5.84,0,0,1,1.56-.07A10.07,10.07,0,0,1,327.05,416.56Z" transform="translate(-226.25 -382.01)"/><path class="cls-11" d="M324.88,405c-.3,0-.61.08-.89-.07A1.8,1.8,0,0,1,324.88,405Z" transform="translate(-226.25 -382.01)"/><path class="cls-11" d="M322.7,404.94V405c-.08.06-.09.22-.25.16s-.12-.14-.08-.24Z" transform="translate(-226.25 -382.01)"/><path class="cls-11" d="M325,416.81c.16-.29.4,0,.59-.08A1,1,0,0,1,325,416.81Z" transform="translate(-226.25 -382.01)"/><path class="cls-11" d="M327.05,405.26c.07.19.2.14.33.08-.25.39-.36.13-.48-.09Z" transform="translate(-226.25 -382.01)"/><path class="cls-11" d="M325.55,405.09h-.27a.21.21,0,0,1-.28.1c-.09,0-.1-.11,0-.19A1.09,1.09,0,0,1,325.55,405.09Z" transform="translate(-226.25 -382.01)"/><path class="cls-11" d="M326.41,405.26c-.17.25-.25.12-.32-.07s.05-.05.09,0a.08.08,0,0,1,.07,0C326.29,405.24,326.37,405.2,326.41,405.26Z" transform="translate(-226.25 -382.01)"/><path class="cls-11" d="M326.41,405.26l-.16-.08a1.21,1.21,0,0,1,.65.08Z" transform="translate(-226.25 -382.01)"/><path class="cls-11" d="M325,405c.06.2.19.15.32.09-.2.26-.33.21-.4-.09Z" transform="translate(-226.25 -382.01)"/><path class="cls-11" d="M332.53,416.49a.78.78,0,0,1,.58.07A1.27,1.27,0,0,1,332.53,416.49Z" transform="translate(-226.25 -382.01)"/><path class="cls-11" d="M326.25,416.64a1,1,0,0,1,.59-.07A1.09,1.09,0,0,1,326.25,416.64Z" transform="translate(-226.25 -382.01)"/><path class="cls-11" d="M326.18,405.17l-.09,0a.82.82,0,0,1-.41-.09A.85.85,0,0,1,326.18,405.17Z" transform="translate(-226.25 -382.01)"/><path class="cls-11" d="M325.68,416.72a.67.67,0,0,1,.44-.07A.67.67,0,0,1,325.68,416.72Z" transform="translate(-226.25 -382.01)"/><path class="cls-14" d="M324.32,408.64a8.49,8.49,0,0,1-4.06-.4,7.49,7.49,0,0,1,1.84-.32c3.44-.2,6.88,0,10.32-.1a19.07,19.07,0,0,0,3.3-.13,14.06,14.06,0,0,0,5.84-2.28l.17-.11c.08-.05.17-.13.26-.07s0,.17,0,.26a5.38,5.38,0,0,1-.54,1.26c-.61,1.07-.47,1.53.63,2.08l1.35.63a.42.42,0,0,1,.16,0,2.34,2.34,0,0,1,1.37,1.3.87.87,0,0,1-.22.81,7.6,7.6,0,0,1-1.11.93c-.61.36-1.3.54-1.89.94s-.62.68-.3,1.26.71,1.13,1.05,1.71c.15.26.35.54.11.82a1,1,0,0,1-1,.44,1.06,1.06,0,0,1-.46-.54,2.79,2.79,0,0,0-1.69-1.55.36.36,0,0,1-.27-.21.44.44,0,0,1,0-.3c-.09-.78.39-1.36.74-2.08-.68.13-1.27.27-1.87.33a46.4,46.4,0,0,1-5.9.4c-1.73-.06-3.46,0-5.2,0-.67,0-1.34.06-2,.07a1.05,1.05,0,0,1-1.09-.72.38.38,0,0,1,.39-.22l.14,0a15,15,0,0,1,1.77-.1c1.76-.12,3.52-.26,5.3-.29s3.45-.06,5.17-.22a1.23,1.23,0,0,0,.6-.2l.13,0c.18,0,.37,0,.55-.08,1-.21,2.07-.44,3.09-.71.16,0,.41,0,.46-.2s-.21-.24-.32-.36-.36-.22-.31-.47-.23-.24-.38-.3a15.35,15.35,0,0,0-3.66-.8,58.67,58.67,0,0,0-6.07-.25c-2,0-4-.16-6-.19C324.66,408.61,324.47,408.5,324.32,408.64Z" transform="translate(-226.25 -382.01)"/><path class="cls-15" d="M316.89,412.28a8.86,8.86,0,0,1-1.68-1,.35.35,0,0,1,.26-.24l.93-.11c-.28-.1-.62,0-.86-.23a1.32,1.32,0,0,1,.88-.7,5.94,5.94,0,0,1,2.61-.32l1.08.07a.28.28,0,0,1,.11-.08c.27,0,.53-.1.81-.07a3.41,3.41,0,0,0,1,.12c.24,0,.48.05.72,0a.32.32,0,0,1,.14,0,1.29,1.29,0,0,1,.67.28,3.48,3.48,0,0,0,1.2.12c1.52,0,3-.14,4.55-.21a.26.26,0,0,1,.16-.13,5.89,5.89,0,0,1,.84,0c1.06.09,2.12,0,3.18,0a22.25,22.25,0,0,1,4.72.77.58.58,0,0,1,.25.12.32.32,0,0,1,.09.28c-.14.26-.42.27-.66.32a22.39,22.39,0,0,1-2.82.46,2.76,2.76,0,0,1-1.11.08c-1.26,0-2.52-.05-3.78,0a25.89,25.89,0,0,1-5,0c-.27,0-.52.11-.79.09-2.2.15-4.39.31-6.58.54A1.39,1.39,0,0,1,316.89,412.28Z" transform="translate(-226.25 -382.01)"/><path class="cls-16" d="M316.8,410.75c-.45-.11-.92,0-1.37-.08h0c-.12-.1-.28,0-.41-.08h0l-.11-.08a6.13,6.13,0,0,1-1.42,0h0l-.11-.08a6.13,6.13,0,0,1-1.42,0h0l-.12-.08a.59.59,0,0,0-.23,0,1.91,1.91,0,0,1-1.11-.06.36.36,0,0,0-.27,0,2.91,2.91,0,0,1-1,0h-.07c-.35-.12-.71,0-1.06-.08h0c-.29-.12-.61,0-.9-.08h0a5.77,5.77,0,0,1,0,1.66h0a7.5,7.5,0,0,1,1.63-.15.3.3,0,0,0,.26-.06h.08c.14-.07.29,0,.43,0s.48.09.7,0h0a2,2,0,0,1,.6,0,3.71,3.71,0,0,0,.94-.05h.07a3.88,3.88,0,0,1,.76,0,3.3,3.3,0,0,0,.94,0h.16c.45-.11.92,0,1.38-.08.12-.09.28,0,.4-.07l1.28-.09c.1,0,.23,0,.24-.15S316.91,410.76,316.8,410.75Z" transform="translate(-226.25 -382.01)"/><path class="cls-17" d="M335.12,411.63l3.39-.64c.06-.1,0-.12-.08-.15a25.36,25.36,0,0,0-5-.82h-3.11c-.26-.11-.54,0-.81-.07h-.15l-.48-.17a.22.22,0,0,1-.09-.12,1.08,1.08,0,0,1,.72-.25,14.34,14.34,0,0,0,3.21,0c1-.19,2-.09,3-.32,1.22.15,2.44.28,3.66.46a5,5,0,0,1,1.26.38c.14.07.28.12.29.3.26.18.53.35.79.54.1.08.29.14.26.27s-.23.14-.36.18c-1.09.34-2.2.57-3.31.8l-.27.07c-.18.09-.39,0-.57.07h0a7.31,7.31,0,0,1-2.14,0l-.2,0c-.13-.06-.32-.08-.32-.26S335.05,411.75,335.12,411.63Z" transform="translate(-226.25 -382.01)"/><path class="cls-18" d="M339.32,415.28c1.24.26,1.81,1.24,2.35,2.24,0,.35-.17.49-.51.39s-.57-.27-.87-.38a19.65,19.65,0,0,0-6.77-2,1,1,0,0,0-.55-.08,15.26,15.26,0,0,1-2.44-.48h0c-.18-.11-.39,0-.57-.09h0a14.81,14.81,0,0,0-2-.12.56.56,0,0,1-.42-.05v-.22c.06-.14.19-.13.31-.13,1.6,0,3.2,0,4.79,0a.23.23,0,0,1,.15.07l.31.08a.68.68,0,0,1,.57.33.6.6,0,0,0,.32.15.72.72,0,0,0,.5,0h1.68c.21.1.44,0,.65.08h.32c.2.13.45-.08.65.08H338c.15.1.34,0,.49.08h.23C338.87,415.33,339.12,415.1,339.32,415.28Z" transform="translate(-226.25 -382.01)"/><path class="cls-19" d="M317.85,412.28c2.18-.14,4.35-.4,6.54-.48a2.41,2.41,0,0,1,.71,0c.07,0,.16,0,.19.08a.16.16,0,0,1-.07.21c-.4.2-.58.62-.91.88h0c-.15.1-.34,0-.49.08h0c-.15.14-.27,0-.41,0-.86,0-1.72-.05-2.57,0h0c-.21.11-.44,0-.65.08h0a5.23,5.23,0,0,1-2.26-.08h0a2.09,2.09,0,0,1-.74-.16.53.53,0,0,1-.32-.08c-.14-.34.11-.39.34-.44S317.65,412.38,317.85,412.28Z" transform="translate(-226.25 -382.01)"/><path class="cls-20" d="M340.93,410.19a17.64,17.64,0,0,0-5.14-.91c-.69,0-1.39,0-2.08,0-.25,0-.53.09-.74-.14a18.61,18.61,0,0,0-3.34-.19c-.78,0-1.56,0-2.33-.11a7.74,7.74,0,0,0-1.17-.12,11.53,11.53,0,0,0-1.31-.09.1.1,0,0,1-.11-.12c1.64-.09,3.28.06,4.92.08a66.7,66.7,0,0,1,7.48.27,14.41,14.41,0,0,1,3.94,1,1.2,1.2,0,0,1,.48.26C341.35,410.26,341.13,410.17,340.93,410.19Z" transform="translate(-226.25 -382.01)"/><path class="cls-21" d="M343.53,412.3c.32-.25.64-.49,1-.75a.81.81,0,0,0,0-1.29,8.18,8.18,0,0,0-1.06-.8l-.08-.57a.77.77,0,0,1-.1-.18c0-.21-.06-.42.23-.48a.25.25,0,0,1,.12,0,4.76,4.76,0,0,1,.49.62c.39.5.41.51.93.2.17-.08.34.07.51,0l.32-.09a.38.38,0,0,1,.21.28c0,.47.08.93.07,1.4a3.77,3.77,0,0,1-.59,1.82.49.49,0,0,1-.56.21.91.91,0,0,0-.89.37,2.4,2.4,0,0,1-.4.38c-.26.19-.49.09-.5-.23A1.12,1.12,0,0,1,343.53,412.3Z" transform="translate(-226.25 -382.01)"/><path class="cls-22" d="M343.36,408.73v.16a.49.49,0,0,1-.08-.8c.46,0,.68-.29.72-.84a1,1,0,0,1,.26-.7c.21-.19.41-.22.6.06a3.24,3.24,0,0,1,.45,1.8c0,.24-.09.53.23.66a.83.83,0,0,1-.48.15.79.79,0,0,1-1-.43,1.06,1.06,0,0,0-.43-.46h0C343.29,408.29,343.26,408.35,343.36,408.73Z" transform="translate(-226.25 -382.01)"/><path class="cls-23" d="M312.12,414.22l-.41.15c-.09.1-.22,0-.33.06s-.29,0-.27-.22a.16.16,0,0,0,0-.15c0-.46-.12-.83-.62-1-.25,0-.34.27-.51.39l-.45.34a.94.94,0,0,0-.52.23,2.41,2.41,0,0,1-1.18.33c-.16.08-.35,0-.51.07h-.47c-.2.13-.22.24.06.27.11,0,.23.05.33,0a.86.86,0,0,1,.45,0,7.86,7.86,0,0,1,1.68,0,13,13,0,0,1,1.87,0c.14-.07.29,0,.43-.06l.57-.18c.12,0,.27,0,.26-.21S312.24,414.17,312.12,414.22Z" transform="translate(-226.25 -382.01)"/><path class="cls-21" d="M345.12,403.09a3.79,3.79,0,0,1-.86,2.32c-.23.32-.49.6-.74.9-.21-.39,0-.75.08-1.11a7.6,7.6,0,0,1,.34-1,.29.29,0,0,1,0-.16c0-.1.11-.18.14-.28s0-.1.09-.13a3,3,0,0,0,.48-.88.54.54,0,0,0,0-.11c.17-.2.28-.16.35.08S345.08,403,345.12,403.09Z" transform="translate(-226.25 -382.01)"/><path class="cls-24" d="M322.05,409.86l-1.05-.08c-.11-.07-.23,0-.35,0-.31,0-.37-.13-.22-.41.29-.51.5-.58,1.3-.43h0c.15.11.35,0,.49.1a.59.59,0,0,0,.32.08c.16-.1.29,0,.41.09s.26,0,.35.14l.1.05a.57.57,0,0,1,.36.22c0,.05,0,.1.07.15v0a1.09,1.09,0,0,1-1,.19h-.07C322.54,409.83,322.28,410,322.05,409.86Z" transform="translate(-226.25 -382.01)"/><path class="cls-25" d="M317.21,409.06l.4-.17c.17-.22.42-.14.65-.16h0c.17-.11.39,0,.56-.08h0a7.15,7.15,0,0,1,1.22,0c.21,0,.26.12.19.29a2,2,0,0,1-.26.45.7.7,0,0,1-.2.18h-.37a.54.54,0,0,0-.43,0h-.78c-.27-.1-.56,0-.82-.07h-.08s-.1,0-.15,0-.31.09-.33-.09.16-.24.33-.24A.15.15,0,0,0,317.21,409.06Z" transform="translate(-226.25 -382.01)"/><path class="cls-11" d="M333,409.12c.93.16,1.88.05,2.82.16-.81.08-1.63,0-2.44.09a33.12,33.12,0,0,1-3.45.09c-.3,0-.61.05-.91.07-.11,0-.19,0-.17.17s-.16.17-.27.06,0-.21,0-.3h.48c.1-.23.23-.29.41-.07h2.77A.85.85,0,0,0,333,409.12Z" transform="translate(-226.25 -382.01)"/><path class="cls-26" d="M312.44,414.3a.51.51,0,0,0-.32-.08l1.35-.48c.16.08.34,0,.5.07a2.83,2.83,0,0,0,.87.09c.07,0,.14.08.1.14s-.15.08-.24,0h-1.21c-.08.14-.23,0-.34.08l-.55.18A.12.12,0,0,1,312.44,414.3Z" transform="translate(-226.25 -382.01)"/><path class="cls-11" d="M332.79,414.39h-4.7a1,1,0,0,0-.55.09c.1-.23.32-.17.49-.17,1.37,0,2.73,0,4.1,0C332.34,414.32,332.6,414.09,332.79,414.39Z" transform="translate(-226.25 -382.01)"/><path class="cls-11" d="M330.53,414.94a20.62,20.62,0,0,1,2.44.48A5.25,5.25,0,0,1,330.53,414.94Z" transform="translate(-226.25 -382.01)"/><path class="cls-11" d="M321.73,408.9h-.52a.88.88,0,0,0-.73.61c0,.13,0,.18.14.19a.71.71,0,0,1,.38.09,1.87,1.87,0,0,1-.81-.07.92.92,0,0,1,.57-1,1.34,1.34,0,0,0,.66.08C321.52,408.81,321.66,408.74,321.73,408.9Z" transform="translate(-226.25 -382.01)"/><path class="cls-27" d="M324.71,408.49a8,8,0,0,0,1.38.15,5,5,0,0,1,1.21.18c-1,0-2-.21-3-.18l-.18-.08v-.07Z" transform="translate(-226.25 -382.01)"/><path class="cls-11" d="M317.93,413a12.21,12.21,0,0,0,2.26.08A3,3,0,0,1,317.93,413Z" transform="translate(-226.25 -382.01)"/><path class="cls-11" d="M320.84,413a2.77,2.77,0,0,1,1.11-.07,9.75,9.75,0,0,1,1.87.06c0,.08-.08.17-.17.14A12.59,12.59,0,0,0,320.84,413Z" transform="translate(-226.25 -382.01)"/><path class="cls-11" d="M320.76,408.73a2.61,2.61,0,0,0-.57,1h-.08c0-.28-.19-.19-.34-.18l.09-.16c.29-.15.27-.48.41-.72C320.42,408.77,320.57,408.86,320.76,408.73Z" transform="translate(-226.25 -382.01)"/><path class="cls-28" d="M331.81,405.82c.26.16.56,0,.83.09a16.77,16.77,0,0,1-2.92.08c0-.22.21-.11.31-.12.54,0,1.09,0,1.63,0Z" transform="translate(-226.25 -382.01)"/><path class="cls-11" d="M320.27,408.65c-.11.26.07.68-.41.72a.08.08,0,0,1,0,0c.31-.69.31-.69-.49-.68h-.56A2.74,2.74,0,0,1,320.27,408.65Z" transform="translate(-226.25 -382.01)"/><path class="cls-11" d="M327.54,414.69a20.69,20.69,0,0,1,2.08.1.8.8,0,0,1,.34.07c-.72.08-1.44-.15-2.16-.08C327.71,414.79,327.63,414.72,327.54,414.69Z" transform="translate(-226.25 -382.01)"/><path class="cls-29" d="M331.66,405.83a2.77,2.77,0,0,1-1,.08c-.3,0-.62-.07-.91.08l-.22,0v-.14Z" transform="translate(-226.25 -382.01)"/><path class="cls-11" d="M317.85,412.28a.67.67,0,0,1-.42.08.51.51,0,0,0-.55.41c-.21-.17-.19-.33,0-.49Z" transform="translate(-226.25 -382.01)"/><path class="cls-11" d="M322.93,409.22l-.4-.15a.56.56,0,0,1,.81.23l0,0C323.18,409.25,323,409.28,322.93,409.22Z" transform="translate(-226.25 -382.01)"/><path class="cls-11" d="M311.87,411.39a9.68,9.68,0,0,1,1.7-.08.17.17,0,0,1-.21.13A12.37,12.37,0,0,0,311.87,411.39Z" transform="translate(-226.25 -382.01)"/><path class="cls-11" d="M317.21,409.06l-.33.23c.11.15.31.06.41.17h-.12c-.15,0-.33.05-.41-.14a.24.24,0,0,1,0-.22C316.9,408.92,317.06,409,317.21,409.06Z" transform="translate(-226.25 -382.01)"/><path class="cls-11" d="M310.26,411.47a8,8,0,0,1,1.54-.08.18.18,0,0,1-.22.13A9.71,9.71,0,0,0,310.26,411.47Z" transform="translate(-226.25 -382.01)"/><path class="cls-11" d="M315,410.59a6.48,6.48,0,0,1-1.46-.08h1.13a.22.22,0,0,1,.28-.11C315,410.44,315,410.51,315,410.59Z" transform="translate(-226.25 -382.01)"/><path class="cls-11" d="M313.41,410.51a6.42,6.42,0,0,1-1.45-.08h1.13a.21.21,0,0,1,.27-.11C313.46,410.36,313.47,410.43,313.41,410.51Z" transform="translate(-226.25 -382.01)"/><path class="cls-11" d="M322.85,410a4.62,4.62,0,0,0,1-.19.36.36,0,0,1-.25.27A2,2,0,0,1,322.85,410Z" transform="translate(-226.25 -382.01)"/><path class="cls-11" d="M311.88,410.43a5.79,5.79,0,0,1-1.38-.08l0,0,0,0h1a.21.21,0,0,1,.27-.11C311.93,410.28,311.93,410.35,311.88,410.43Z" transform="translate(-226.25 -382.01)"/><path class="cls-11" d="M314.7,414.06c.06,0,.23,0,.14-.16.17.09.52,0,.49.22S314.92,414.15,314.7,414.06Z" transform="translate(-226.25 -382.01)"/><path class="cls-11" d="M316.8,410.75a4.52,4.52,0,0,1-1.37-.08h.11A5.31,5.31,0,0,1,316.8,410.75Z" transform="translate(-226.25 -382.01)"/><path class="cls-11" d="M313.73,411.31a6.36,6.36,0,0,1,1.38-.08A4.27,4.27,0,0,1,313.73,411.31Z" transform="translate(-226.25 -382.01)"/><path class="cls-11" d="M333.67,414.8l-.57-.33C333.41,414.37,333.59,414.49,333.67,414.8Z" transform="translate(-226.25 -382.01)"/><path class="cls-11" d="M317.2,412.85a1.57,1.57,0,0,1,.74.16A.66.66,0,0,1,317.2,412.85Z" transform="translate(-226.25 -382.01)"/><path class="cls-11" d="M339.32,415.28a1.6,1.6,0,0,1-.65-.09,1.06,1.06,0,0,0,.58-.16A.31.31,0,0,1,339.32,415.28Z" transform="translate(-226.25 -382.01)"/><path class="cls-26" d="M311.71,414.37c-.55.25-.63.21-.64-.31C311.11,414.53,311.44,414.4,311.71,414.37Z" transform="translate(-226.25 -382.01)"/><path class="cls-11" d="M328.59,409.46c0,.19,0,.36.23.24a.19.19,0,0,1,0,.07c-.13.1-.26.12-.36,0S328.46,409.51,328.59,409.46Z" transform="translate(-226.25 -382.01)"/><path class="cls-11" d="M318.26,408.73a2.14,2.14,0,0,1-.65.16l.08-.08c.09-.23.22-.3.4-.08Z" transform="translate(-226.25 -382.01)"/><path class="cls-11" d="M323.82,409.72l-.08-.09c-.08-.16-.25-.19-.4-.25h0s0,0,0-.06l0,0C323.73,409.18,323.86,409.35,323.82,409.72Z" transform="translate(-226.25 -382.01)"/><path class="cls-11" d="M337.79,415.11a1.44,1.44,0,0,1-.65-.08C337.35,415.11,337.61,414.82,337.79,415.11Z" transform="translate(-226.25 -382.01)"/><path class="cls-11" d="M344.18,403.65l0,.16c-.05.1-.18.18-.15.32l-.07.09C343.73,403.9,344,403.78,344.18,403.65Z" transform="translate(-226.25 -382.01)"/><path class="cls-11" d="M317.37,409.46a2.53,2.53,0,0,1,.82.07C317.91,409.52,317.63,409.61,317.37,409.46Z" transform="translate(-226.25 -382.01)"/><path class="cls-11" d="M312.44,414.3h.16c-.08.19-.2.26-.4.15Z" transform="translate(-226.25 -382.01)"/><path class="cls-11" d="M329.48,409.38a.3.3,0,0,0-.41.07C329.16,409.17,329.29,409.12,329.48,409.38Z" transform="translate(-226.25 -382.01)"/><path class="cls-11" d="M336.82,415a1.6,1.6,0,0,1-.65-.08A1.2,1.2,0,0,1,336.82,415Z" transform="translate(-226.25 -382.01)"/><path class="cls-11" d="M315,410.59c-.07-.19-.2-.14-.33-.08.2-.26.33-.21.4.08H315Z" transform="translate(-226.25 -382.01)"/><path class="cls-11" d="M320.19,413.09a1.44,1.44,0,0,1,.65-.08C320.64,413.14,320.41,413.07,320.19,413.09Z" transform="translate(-226.25 -382.01)"/><path class="cls-11" d="M313.41,410.51c-.06-.19-.19-.14-.32-.08.19-.26.32-.21.4.08h-.08Z" transform="translate(-226.25 -382.01)"/><path class="cls-11" d="M311.88,410.43c-.06-.19-.19-.14-.32-.08.19-.26.32-.21.4.08h-.08Z" transform="translate(-226.25 -382.01)"/><path class="cls-11" d="M318.09,408.73a.29.29,0,0,0-.4.08C317.77,408.52,317.9,408.48,318.09,408.73Z" transform="translate(-226.25 -382.01)"/><path class="cls-11" d="M330,414.86a1.13,1.13,0,0,1,.57.09C330.34,414.93,330.14,415,330,414.86Z" transform="translate(-226.25 -382.01)"/><path class="cls-11" d="M313.15,414.13a.47.47,0,0,1,.34-.08C313.42,414.26,313.29,414.19,313.15,414.13Z" transform="translate(-226.25 -382.01)"/><path class="cls-11" d="M318.82,408.65a1.07,1.07,0,0,1-.56.08C318.43,408.61,318.63,408.66,318.82,408.65Z" transform="translate(-226.25 -382.01)"/><path class="cls-11" d="M338.44,415.19a.91.91,0,0,1-.49-.08A.84.84,0,0,1,338.44,415.19Z" transform="translate(-226.25 -382.01)"/><path class="cls-11" d="M314,413.81a1.21,1.21,0,0,1-.5-.07A.85.85,0,0,1,314,413.81Z" transform="translate(-226.25 -382.01)"/><path class="cls-11" d="M334.49,415a.47.47,0,0,1-.5,0Z" transform="translate(-226.25 -382.01)"/><path class="cls-11" d="M323.82,413a.76.76,0,0,1,.49-.08.65.65,0,0,1-.39.09Z" transform="translate(-226.25 -382.01)"/><path class="cls-11" d="M322.21,409a1.19,1.19,0,0,1-.49-.1C321.89,408.9,322.07,408.86,322.21,409Z" transform="translate(-226.25 -382.01)"/><path class="cls-11" d="M315.1,411.23a.54.54,0,0,1,.41-.07l-.3.08Z" transform="translate(-226.25 -382.01)"/><path class="cls-11" d="M315.43,410.67a.84.84,0,0,1-.41-.08A.59.59,0,0,1,315.43,410.67Z" transform="translate(-226.25 -382.01)"/><path class="cls-11" d="M322.45,405.18l.25-.16C322.66,405.14,322.63,405.27,322.45,405.18Z" transform="translate(-226.25 -382.01)"/><path class="cls-11" d="M311.2,414.7l.43-.06A.78.78,0,0,1,311.2,414.7Z" transform="translate(-226.25 -382.01)"/><path class="cls-11" d="M319,409.54a.36.36,0,0,1,.42,0Z" transform="translate(-226.25 -382.01)"/><path class="cls-11" d="M344.65,402.52l.08.23-.07,0C344.62,402.68,344.58,402.6,344.65,402.52Z" transform="translate(-226.25 -382.01)"/><path class="cls-30" d="M343.53,412.3a5.67,5.67,0,0,0-.17,1.16,3.09,3.09,0,0,0,.8-.76.55.55,0,0,1,.64-.21c.45.14.67-.09.83-.47a5,5,0,0,0,.24-2.73c.2-.08.29.07.39.2s.15.27.33.24.21-.23.24-.38c.18-.87.37-1.75.6-2.61.06-.21.06-.47.34-.55s.23.17.29.3a6.37,6.37,0,0,1,.56,1.25.28.28,0,0,0,.14.18c0,.94.13,1.87.15,2.8a13,13,0,0,1-.24,2.71,5,5,0,0,1-.41,1.61c-.07.14-.11.3-.31.32l-.39-.41a.32.32,0,0,1-.26-.27c-.11-.51-.17-1-.23-1.55a.35.35,0,0,1,.15-.35l-.15-.87a.65.65,0,0,0-.49-.48c-.24-.07-.32.16-.42.3a8.41,8.41,0,0,0-.92,1.91.45.45,0,0,0,.11.44l.44.63c0,.18-.1.21-.25.16a2.28,2.28,0,0,1-1.19.42c-.23,0-.35-.09-.34-.34a1.77,1.77,0,0,0-.12-.79.61.61,0,0,0-.55-.41c-.27,0-.31.2-.41.37l0,.07c-.37.79-.37.79.4,1.16a.41.41,0,0,1,.22.17c.26,1,.61,1.88,1,2.8.08.21.29.42.09.67a2.13,2.13,0,0,0,.19,2.14c.17.25.32.5.48.75a1.6,1.6,0,0,1,.21,1.13.87.87,0,0,1-.84.67c-.21,0-.18-.16-.2-.29a7.55,7.55,0,0,0-1.08-2.85,10.14,10.14,0,0,0-2.75-2.79l-.29-.22.89.2c.22,0,.4,0,.49-.21a1.57,1.57,0,0,0,.74-.37c.23-.14.12-.33,0-.49-.34-.58-.69-1.15-1-1.72-.56-.91-.48-1.28.45-1.82C342.38,412.8,343,412.57,343.53,412.3Z" transform="translate(-226.25 -382.01)"/><path class="cls-21" d="M339.57,428.83a8.4,8.4,0,0,0-.58-1.71,4,4,0,0,0-1.82-1.64c-.48-.22-1-.4-1.45-.61-.23-.1-.34,0-.4.2s-.13.41-.2.61c0,.44-.32.35-.56.4l-1.43.24c.12-.33.29-.49.62-.46s.46,0,.69,0,.33-.13.27-.37,0-.21-.08-.31c-.1-.35-.26-.47-.64-.3-.64.3-1.34.49-2,.84A3.88,3.88,0,0,0,330,429c0,.34-.06.67-.09,1,0,.09,0,.22-.09.25s-.17-.11-.22-.19a2.6,2.6,0,0,1,0-2.41,5.36,5.36,0,0,1,4.09-3.07,5.1,5.1,0,0,1,5.27,1.92,3.25,3.25,0,0,1,.71,2C339.68,428.62,339.78,428.76,339.57,428.83Z" transform="translate(-226.25 -382.01)"/><path class="cls-31" d="M336.1,429.61c-.11-.27-.2-.47-.28-.68a1.25,1.25,0,0,1-.12-.54.62.62,0,0,1,.35-.51c.21-.11.34,0,.46.14s.49.46.72.71a1.59,1.59,0,0,1-.71,2.51c-.82.24-1,.12-1.14-.72a7,7,0,0,1-.08-1.21c0-.21.09-.23.24-.11A1.57,1.57,0,0,0,336.1,429.61Z" transform="translate(-226.25 -382.01)"/><path class="cls-32" d="M332.69,429.86a1.94,1.94,0,0,1,.74-1.54c.18-.14.32-.15.46.07a16.87,16.87,0,0,1,1,1.73c.09.17.09.29-.07.41l-.56.47c-.68.57-1.13.18-1.46-.38A1.64,1.64,0,0,1,332.69,429.86Z" transform="translate(-226.25 -382.01)"/><path class="cls-10" d="M347.79,406.21c-.33,1.1-.56,2.22-.8,3.33,0,.17,0,.45-.24.49a.55.55,0,0,1-.6-.35c-.08-.14-.19-.26-.28-.39V409a1,1,0,0,1,.47-.84,1.81,1.81,0,0,0,.65-1,7.42,7.42,0,0,0,.27-2.39,1.91,1.91,0,0,1,.27-1.12c.15-.25.21-.08.27.06s.19.26.19.42c0,.57,0,1.15,0,1.73C348,406,348,406.13,347.79,406.21Z" transform="translate(-226.25 -382.01)"/><path class="cls-33" d="M347.79,403.65v2.56c.2.68.6,1.27.83,2l.14-.28a17.36,17.36,0,0,0-.64-5.74A3.16,3.16,0,0,0,347.79,403.65Z" transform="translate(-226.25 -382.01)"/><path class="cls-21" d="M348,415.36c.24-.64.42-1.31.72-1.93a12,12,0,0,1-.72,6.24A36.46,36.46,0,0,1,348,415.36Z" transform="translate(-226.25 -382.01)"/><path class="cls-34" d="M347.22,412.78a17.79,17.79,0,0,0,.34,2.17c0,.82.22,1.62.17,2.44,0,.13,0,.25,0,.37s-.14.4-.32.4-.1-.24-.1-.37a14.75,14.75,0,0,0-.18-2.49,5.34,5.34,0,0,0-.85-1.9c-.14-.23-.4-.51-.26-.72s.49,0,.75,0A.69.69,0,0,1,347.22,412.78Z" transform="translate(-226.25 -382.01)"/><path class="cls-21" d="M344.57,419a17.59,17.59,0,0,1-1.08-3,.55.55,0,0,1,0-.5,5.81,5.81,0,0,1,1.68,3c.2.14.17.3,0,.46s.09.45-.06.68A1.44,1.44,0,0,1,344.57,419Z" transform="translate(-226.25 -382.01)"/><path class="cls-6" d="M345.54,414.87l.25-.16c.56,0,.56,0,.56.59a11.33,11.33,0,0,1-.08,1.63c-.26-.62-.53-1.25-.79-1.88C345.46,415,345.52,414.93,345.54,414.87Z" transform="translate(-226.25 -382.01)"/><path class="cls-35" d="M345.24,419l0-.46c0-.3.12-.52.42-.54s.35.29.39.52.11.48-.06.61S345.47,419.05,345.24,419Z" transform="translate(-226.25 -382.01)"/><path class="cls-36" d="M338.53,428.58a4.34,4.34,0,0,0-1.71-2.09c0-.08,0-.12.09-.09a3.26,3.26,0,0,1,1.7,2.1C338.64,428.58,338.6,428.6,338.53,428.58Z" transform="translate(-226.25 -382.01)"/><path class="cls-37" d="M334.56,426.08c.22-.09.51-.08.56-.4,0,.16.06.24.23.25s.28.05.42.07,0,0,0,.06,0,0,0,0Z" transform="translate(-226.25 -382.01)"/><path class="cls-38" d="M335.77,426.09V426a2.4,2.4,0,0,1,1.14.4l-.09.09A7.83,7.83,0,0,0,335.77,426.09Z" transform="translate(-226.25 -382.01)"/><path class="cls-39" d="M339.57,428.83a.56.56,0,0,0,.08-.33,1.42,1.42,0,0,1,.08.72A.42.42,0,0,1,339.57,428.83Z" transform="translate(-226.25 -382.01)"/><path class="cls-40" d="M338.53,428.58l.08-.08a.25.25,0,0,1,0,.3C338.55,428.76,338.56,428.66,338.53,428.58Z" transform="translate(-226.25 -382.01)"/><path class="cls-6" d="M339.58,393a5.64,5.64,0,0,1-1,2.25,4.82,4.82,0,0,1-4.81,1.48,4.63,4.63,0,0,1-3.37-2.38,6.38,6.38,0,0,1-.48-2.52.93.93,0,0,0-.14-.6,3.16,3.16,0,0,0-.14,3,5.74,5.74,0,0,0,7.34,2.64,4.29,4.29,0,0,0,2.71-3.62C339.66,393.15,339.78,393,339.58,393Z" transform="translate(-226.25 -382.01)"/><path class="cls-41" d="M336.14,390.48a.65.65,0,0,0-.74.52,3.65,3.65,0,0,0,.67,2.93c.11.19.22.06.32,0,.25-.25.49-.51.75-.74a1,1,0,0,0,.42-1A1.55,1.55,0,0,0,336.14,390.48Z" transform="translate(-226.25 -382.01)"/><path class="cls-41" d="M333.74,390.54a1.22,1.22,0,0,0-1,1.08,4.26,4.26,0,0,0,.25,1.5c.05.17.15.19.31.15a2.34,2.34,0,0,0,1.71-1.66.31.31,0,0,0,0-.19A2.26,2.26,0,0,0,333.74,390.54Z" transform="translate(-226.25 -382.01)"/><path class="cls-42" d="M335.19,395l-.14,0c-.22,0-.52.08-.51.35s.31.14.48.2a.37.37,0,0,0,.15,0c.24,0,.57,0,.56-.33S335.38,395.08,335.19,395Z" transform="translate(-226.25 -382.01)"/><path class="cls-43" d="M331.66,389c.86-.45,1.2-.69,1.36-.95a2.88,2.88,0,0,0-1.54.86C331.48,389,331.55,389,331.66,389Z" transform="translate(-226.25 -382.01)"/><path class="cls-44" d="M326.8,393.17c0,.19-.07.41-.29.42s-.31-.23-.31-.43,0-.4.28-.41S326.77,393,326.8,393.17Z" transform="translate(-226.25 -382.01)"/><path class="cls-45" d="M326.8,428.65c0,.2-.06.42-.3.42s-.31-.23-.3-.44.06-.4.29-.4S326.76,428.47,326.8,428.65Z" transform="translate(-226.25 -382.01)"/><path class="cls-6" d="M345.52,395.88c-.08-.09-.25-.21-.29,0a3.21,3.21,0,0,0,0,1.74c.07.22.22.44.49.4s.4-.29.44-.56a1.33,1.33,0,0,0,0-.2A2.06,2.06,0,0,0,345.52,395.88Z" transform="translate(-226.25 -382.01)"/><path class="cls-46" d="M324.31,412.93a1.64,1.64,0,0,1,.85-1.13h-.77a2.16,2.16,0,0,1,1-.06,37.72,37.72,0,0,0,4.87-.07,25.39,25.39,0,0,1,3.9,0c.32,0,.61-.08.92-.06l-.19.15a18.43,18.43,0,0,0,2.54.34,6,6,0,0,1-1.78.31,16.56,16.56,0,0,1-1.73.09c-2.2,0-4.4.1-6.6.27A28.3,28.3,0,0,1,324.31,412.93Z" transform="translate(-226.25 -382.01)"/><path class="cls-47" d="M343.51,410.52c-.34,0-.63-.23-.62-.48s.16-.27.33-.28.62.25.62.48S343.66,410.51,343.51,410.52Z" transform="translate(-226.25 -382.01)"/><path class="cls-47" d="M343.18,412.06c-.16,0-.32-.09-.28-.31a.57.57,0,0,1,.62-.46c.17,0,.32,0,.32.26S343.5,412.07,343.18,412.06Z" transform="translate(-226.25 -382.01)"/><path class="cls-11" d="M337.47,412.12a.93.93,0,0,1,.57-.07A1,1,0,0,1,337.47,412.12Z" transform="translate(-226.25 -382.01)"/><path class="cls-11" d="M329.47,410a1.7,1.7,0,0,1,.81.07A1.6,1.6,0,0,1,329.47,410Z" transform="translate(-226.25 -382.01)"/><path class="cls-11" d="M322.05,409.86a1.52,1.52,0,0,1,.73.08A1.39,1.39,0,0,1,322.05,409.86Z" transform="translate(-226.25 -382.01)"/><path class="cls-6" d="M338.43,410.84c.06,0,.14,0,.17.05s0,.09-.09.1Z" transform="translate(-226.25 -382.01)"/><path class="cls-11" d="M343.6,408.33a.38.38,0,0,1,.39.2,1.23,1.23,0,0,0,1.07.69c-.57.26-.67.24-1-.26A2.24,2.24,0,0,1,343.6,408.33Z" transform="translate(-226.25 -382.01)"/><path class="cls-11" d="M343.36,408.73c-.25-.13-.14-.35-.05-.48s.2,0,.29.08C343.31,408.34,343.37,408.56,343.36,408.73Z" transform="translate(-226.25 -382.01)"/><path class="cls-11" d="M344,404.13c-.14-.19,0-.25.15-.32A.5.5,0,0,1,344,404.13Z" transform="translate(-226.25 -382.01)"/><path class="cls-11" d="M323.34,409.38c.18,0,.39,0,.4.25A1.12,1.12,0,0,1,323.34,409.38Z" transform="translate(-226.25 -382.01)"/><path class="cls-11" d="M323.34,409.3v.08l-.41-.16A.72.72,0,0,1,323.34,409.3Z" transform="translate(-226.25 -382.01)"/></g><text class="cls-48" transform="translate(1.38 61.03)">Unsteady Aerodynamics Lab</text><g class="cls-49"><g class="cls-50"><g class="cls-50"><path class="cls-51" d="M274.79,410.57a15.88,15.88,0,0,0-.25,2.67,13.52,13.52,0,0,0,8.19,12.36,22.35,22.35,0,0,0,3.79-12.89,15,15,0,0,0-1.83-7.86A13.29,13.29,0,0,1,274.79,410.57Z" transform="translate(-226.25 -382.01)"/><path class="cls-51" d="M272.4,413.24a14.92,14.92,0,0,0-.27-2.67,13.15,13.15,0,0,1-9.92-5.66,15.2,15.2,0,0,0-1.83,7.87,22.51,22.51,0,0,0,3.81,12.88A13.58,13.58,0,0,0,272.4,413.24Z" transform="translate(-226.25 -382.01)"/><path class="cls-51" d="M270.05,393a4.94,4.94,0,0,0,6.88,0,4.75,4.75,0,1,1,0,9.49,4.9,4.9,0,0,1-1.61-.27l-1.89,2.66-1.83-2.7a5.47,5.47,0,0,1-1.61.25,4.72,4.72,0,1,1,0-9.43Zm3.44,15.58c6.1,0,11-4.34,11-9.7a8.08,8.08,0,0,0-.63-3.14.94.94,0,0,0,0-.41l.22-4.12a1,1,0,0,0-1.1-.83l-4.06,1.2h0a23.47,23.47,0,0,0-5.48-.52,23.88,23.88,0,0,0-5.47.52h0l-4-1.26a1,1,0,0,0-1.09.83l.21,4.13a1.48,1.48,0,0,0,0,.42,9.32,9.32,0,0,0-.62,3.13c0,5.37,4.87,9.71,11,9.71Z" transform="translate(-226.25 -382.01)"/><path class="cls-51" d="M279,397.75a2.08,2.08,0,1,1-2.12-2h0a2,2,0,0,1,2.08,2Z" transform="translate(-226.25 -382.01)"/><path class="cls-51" d="M272.16,397.75a2.09,2.09,0,1,1-2.13-2h0a2.06,2.06,0,0,1,2.09,2Z" transform="translate(-226.25 -382.01)"/><path class="cls-51" d="M268.22,431.5c.58,0,1-1.52,1-2.1a1.05,1.05,0,0,0-1-1,1,1,0,0,1-1.42.14.93.93,0,0,1-.14-.14,1.1,1.1,0,0,0-.78.36,1.12,1.12,0,0,0-.79-.36,1,1,0,0,0-1,1c0,.58.47,2.1,1,2.1.31,0,.58-.47.79-.95.2.52.47.95.78.95s.57-.47.78-.95C267.65,431,267.91,431.5,268.22,431.5Z" transform="translate(-226.25 -382.01)"/><path class="cls-51" d="M278.65,426.28a4.27,4.27,0,0,1,.79.1h.2a16,16,0,0,1-6.21-7.51,15.54,15.54,0,0,1-6.2,7.51.19.19,0,0,1,.15,0,4.17,4.17,0,0,1,.78-.1,3.13,3.13,0,0,1,3.13,3.12,4.15,4.15,0,0,1-.2,1.26,8.5,8.5,0,0,0,2.3.31,10.63,10.63,0,0,0,2.24-.27,4.42,4.42,0,0,1-.21-1.3A3.3,3.3,0,0,1,278.65,426.28Z" transform="translate(-226.25 -382.01)"/><path class="cls-51" d="M281.78,428.37a1,1,0,0,1-1.42.14.93.93,0,0,1-.14-.14,1.07,1.07,0,0,0-.78.37,1.1,1.1,0,0,0-.79-.37,1,1,0,0,0-1,1c0,.58.47,2.1,1,2.1.32,0,.58-.47.79-.95.2.52.47.95.78.95s.56-.47.78-.95c.21.52.46.95.78.95.58,0,1-1.52,1-2.1A1,1,0,0,0,281.78,428.37Z" transform="translate(-226.25 -382.01)"/></g><rect class="cls-1" x="22.14" y="3.59" width="50.07" height="50.07"/></g></g><text class="cls-52" transform="translate(69.16 49.52)">L</text><text class="cls-53" transform="translate(0 48.65)">U</text></svg>